<svg xmlns="http://www.w3.org/2000/svg" width="1920" height="1080" viewBox="0 0 1920 1080" fill="none"><g clip-path="url(#clip0_1290_590)"><rect width="1920" height="1080" fill="white"/><g style="mix-blend-mode:hard-light"><ellipse cx="1062.23" cy="273.471" rx="1243.89" ry="177.699" transform="rotate(-27.2473 1062.23 273.471)" fill="url(#paint0_radial_1290_590)"/></g><g style="mix-blend-mode:hard-light"><ellipse cx="1383.81" cy="244.682" rx="1383.81" ry="244.682" transform="matrix(0.799151 -0.601131 0.332499 0.943104 -125 2189.48)" fill="url(#paint1_radial_1290_590)"/></g><g style="mix-blend-mode:hard-light"><ellipse cx="864.132" cy="583.114" rx="1243.89" ry="177.699" transform="rotate(-1.9127 864.132 583.114)" fill="url(#paint2_radial_1290_590)"/></g><g style="mix-blend-mode:hard-light"><ellipse cx="1244.68" cy="259.485" rx="1244.68" ry="259.485" transform="matrix(0.998812 -0.048722 0.0228569 0.999739 -425 214.711)" fill="url(#paint3_radial_1290_590)"/></g><g style="mix-blend-mode:hard-light"><ellipse cx="1344.52" cy="249.112" rx="1344.52" ry="249.112" transform="matrix(0.85371 0.520749 -0.274883 0.961478 99.7812 -0.328125)" fill="url(#paint4_radial_1290_590)"/></g><g style="mix-blend-mode:hard-light"><ellipse cx="1344.52" cy="249.112" rx="1344.52" ry="249.112" transform="matrix(0.85371 0.520749 -0.274883 0.961478 1470.95 403.094)" fill="url(#paint5_radial_1290_590)"/></g><g style="mix-blend-mode:hard-light"><ellipse cx="176.305" cy="-263.689" rx="1243.89" ry="177.699" transform="rotate(22.6655 176.305 -263.689)" fill="url(#paint6_radial_1290_590)"/></g><g style="mix-blend-mode:hard-light"><ellipse cx="1344.52" cy="249.112" rx="1344.52" ry="249.112" transform="matrix(0.85371 0.520749 -0.274883 0.961478 -1079.05 -225)" fill="url(#paint7_radial_1290_590)"/></g><g style="mix-blend-mode:hard-light"><ellipse cx="1246.12" cy="259.344" rx="1246.12" ry="259.344" transform="matrix(0.996638 0.0819309 -0.0385016 0.999259 -478.031 536.016)" fill="url(#paint8_radial_1290_590)"/></g></g><defs><radialGradient id="paint0_radial_1290_590" cx="0" cy="0" r="1" gradientUnits="userSpaceOnUse" gradientTransform="translate(1062.23 273.471) scale(1243.89 177.699)"><stop stop-color="#00FFFF"/><stop offset="1" stop-color="#00FFFF" stop-opacity="0"/></radialGradient><radialGradient id="paint1_radial_1290_590" cx="0" cy="0" r="1" gradientUnits="userSpaceOnUse" gradientTransform="translate(1383.81 244.682) scale(1383.81 244.682)"><stop stop-color="#00FFFF"/><stop offset="1" stop-color="#00FFFF" stop-opacity="0"/></radialGradient><radialGradient id="paint2_radial_1290_590" cx="0" cy="0" r="1" gradientUnits="userSpaceOnUse" gradientTransform="translate(864.132 583.114) scale(1243.89 177.699)"><stop stop-color="#00FFFF"/><stop offset="1" stop-color="#00FFFF" stop-opacity="0"/></radialGradient><radialGradient id="paint3_radial_1290_590" cx="0" cy="0" r="1" gradientUnits="userSpaceOnUse" gradientTransform="translate(1244.68 259.485) scale(1244.68 259.485)"><stop stop-color="#00FFFF"/><stop offset="1" stop-color="#00FFFF" stop-opacity="0"/></radialGradient><radialGradient id="paint4_radial_1290_590" cx="0" cy="0" r="1" gradientUnits="userSpaceOnUse" gradientTransform="translate(1344.52 249.112) scale(1344.52 249.112)"><stop stop-color="#FF8257"/><stop offset="1" stop-color="#FF8257" stop-opacity="0"/></radialGradient><radialGradient id="paint5_radial_1290_590" cx="0" cy="0" r="1" gradientUnits="userSpaceOnUse" gradientTransform="translate(1344.52 249.112) scale(1344.52 249.112)"><stop stop-color="#FF8257"/><stop offset="1" stop-color="#FF8257" stop-opacity="0"/></radialGradient><radialGradient id="paint6_radial_1290_590" cx="0" cy="0" r="1" gradientUnits="userSpaceOnUse" gradientTransform="translate(176.305 -263.689) scale(1243.89 177.699)"><stop stop-color="#FF8257"/><stop offset="1" stop-color="#FF8257" stop-opacity="0"/></radialGradient><radialGradient id="paint7_radial_1290_590" cx="0" cy="0" r="1" gradientUnits="userSpaceOnUse" gradientTransform="translate(1344.52 249.112) scale(1344.52 249.112)"><stop stop-color="#FF8257"/><stop offset="1" stop-color="#FF8257" stop-opacity="0"/></radialGradient><radialGradient id="paint8_radial_1290_590" cx="0" cy="0" r="1" gradientUnits="userSpaceOnUse" gradientTransform="translate(1246.12 259.344) scale(1246.12 259.344)"><stop stop-color="#FF8257"/><stop offset="1" stop-color="#FF8257" stop-opacity="0"/></radialGradient><clipPath id="clip0_1290_590"><rect width="1920" height="1080" fill="white"/></clipPath></defs></svg>