<svg width="132" height="72" viewBox="0 0 132 72" fill="none" xmlns="http://www.w3.org/2000/svg">
<path d="M35.9323 43.4432L43.3387 36.0334L83.4497 29.2086L126.728 32.2395C126.728 32.2395 35.9415 45.3585 36.0524 45.6019C36.1633 45.8454 35.9323 43.4432 35.9323 43.4432Z" fill="#9AFF1A"/>
<path d="M35.9323 43.4432L43.3387 36.0334L83.4497 29.2086L126.728 32.2395C126.728 32.2395 35.9415 45.3585 36.0524 45.6019C36.1633 45.8454 35.9323 43.4432 35.9323 43.4432Z" stroke="#060715" stroke-width="0.85184" stroke-miterlimit="10"/>
<path d="M83.3611 12.1734L83.3583 12.1735L101.77 1.18185L65.3912 2.07793C56.1432 2.30573 49.0323 9.16313 49.5074 17.3926L49.8132 20.9997C49.8132 20.9997 50.5139 28.5304 33.9681 28.9379C33.9681 28.9379 36.3054 47.0911 57.1291 49.9936L55.8958 56.8549L65.6888 54.2336C65.647 54.3239 65.5519 52.2644 65.4731 50.3148C66.1703 50.2708 66.8365 50.2008 67.4879 50.1163C67.6347 52.0763 67.7804 54.1879 67.7275 54.0972L68.0447 54.1636C68.514 53.7801 69.0014 53.4172 69.4871 53.0839C71.2716 51.8618 73.2348 50.8286 75.265 49.9516C75.5111 49.8443 75.7379 49.8715 75.9189 49.9711L75.2263 47.6557C86.6282 41.1717 84.7433 24.9681 83.7381 19.5185C83.57 18.172 83.2159 14.9052 83.3648 12.1793L83.3611 12.1734Z" fill="#060715"/>
<path d="M66.0388 25.6658C72.3747 25.5096 77.2458 20.8085 76.9204 15.1656C76.5949 9.52253 71.1961 5.07493 64.8603 5.23118C58.5244 5.38744 53.6538 10.0883 53.9793 15.7314C54.3047 21.3743 59.7065 25.822 66.0388 25.6658Z" fill="#F9F9F9"/>
<path d="M65.8863 22.9733C70.551 22.8582 74.1356 19.3959 73.8961 15.243C73.6566 11.0902 69.6833 7.81422 65.0186 7.92926C60.3539 8.0443 56.7663 11.5067 57.0058 15.6596C57.2453 19.8124 61.2188 23.0884 65.8863 22.9733Z" fill="#060715"/>
<path d="M25.7837 58.2162L27.7995 54.873L117.409 34.4443L37.7157 69.6664L25.7837 58.2162Z" fill="#24DA86"/>
<path d="M114.388 35.4431L37.7995 69.2928L26.2083 58.1699L28.0445 55.1252L114.387 35.4401M120.454 33.4372L27.581 54.6087L25.3822 58.2532L37.6551 70.0311L120.454 33.4372Z" fill="#060715"/>
<path d="M28.3859 43.9731L124.013 32.233L4.25208 63.6554L28.3859 43.9731Z" fill="#9AFF1A"/>
<path d="M119.561 33.0791L5.58081 62.9839L28.5485 44.2491L119.561 33.0791ZM128.477 31.3753L28.2341 43.6795L2.93725 64.3126L128.477 31.3753Z" fill="#060715"/>
<path d="M82.8749 32.527L130.418 31.1064" stroke="#060715" stroke-width="0.85184" stroke-miterlimit="10"/>
</svg>
